# Blender v2.76 (sub 0) OBJ File: ''
# www.blender.org
o Cube
v 0.526159 -0.379398 -1.189045
v 0.539546 -0.404676 0.368680
v -0.127649 -0.404676 0.368680
v -0.141036 -0.379398 -1.189045
v 0.526159 0.287797 -1.189045
v 0.539545 0.262518 0.368680
v -0.127650 0.262518 0.368680
v -0.141036 0.287797 -1.189045
v 0.365886 -0.231018 0.727280
v 0.046009 -0.231018 0.727280
v 0.365886 0.088859 0.727280
v 0.046009 0.088859 0.727280
vt 0.000000 0.000000
vt 0.999900 0.999900
vt 0.000100 0.999900
vt 0.000100 0.000100
vt 0.999900 0.000100
vn 0.000000 -0.999900 -0.016200
vn -0.000000 0.999900 0.016200
vn 1.000000 -0.000000 -0.008600
vn 0.000000 -0.900000 0.435900
vn -1.000000 -0.000000 0.008600
vn 0.000000 0.000000 -1.000000
vn 0.000000 0.000000 1.000000
vn 0.000000 0.900000 0.435900
vn -0.900000 -0.000000 0.435900
vn 0.900000 0.000000 0.435900
s off
f 1/1/1 2/1/1 3/1/1
f 5/1/2 8/1/2 7/1/2
f 1/1/3 5/1/3 6/1/3
f 3/1/4 2/1/4 9/1/4
f 7/1/5 8/1/5 4/1/5
f 1/1/6 4/1/6 8/1/6
f 11/2/7 12/3/7 10/4/7
f 7/1/8 12/1/8 11/1/8
f 3/1/9 10/1/9 12/1/9
f 6/1/10 11/1/10 9/1/10
f 4/1/1 1/1/1 3/1/1
f 6/1/2 5/1/2 7/1/2
f 2/1/3 1/1/3 6/1/3
f 10/1/4 3/1/4 9/1/4
f 3/1/5 7/1/5 4/1/5
f 5/1/6 1/1/6 8/1/6
f 9/5/7 11/2/7 10/4/7
f 6/1/8 7/1/8 11/1/8
f 7/1/9 3/1/9 12/1/9
f 2/1/10 6/1/10 9/1/10
