# Blender v2.76 (sub 0) OBJ File: ''
# www.blender.org
o Cylinder
v 0.899591 6.388636 -0.842552
v 1.103521 6.388639 -0.821058
v 1.664456 -1.552292 -3.677886
v 1.299342 6.387608 -0.760206
v 2.406771 -1.552292 -3.452708
v 1.479526 6.385587 -0.662333
v 3.090890 -1.552292 -3.087038
v 1.637151 6.382652 -0.531201
v 3.690527 -1.552292 -2.594928
v 1.766157 6.378912 -0.371851
v 4.182635 -1.552292 -1.995293
v 1.861589 6.374517 -0.190403
v 4.548306 -1.552293 -1.311173
v 1.919779 6.369632 0.006167
v 4.773484 -1.552293 -0.568858
v 1.938490 6.364445 0.210306
v 4.849517 -1.552293 0.203121
v 1.917005 6.359156 0.414169
v 4.773484 -1.552293 0.975101
v 1.856146 6.353969 0.609920
v 4.548306 -1.552293 1.717414
v 1.758253 6.349082 0.790041
v 4.182635 -1.552293 2.401536
v 1.627089 6.344683 0.947604
v 3.690527 -1.552293 3.001171
v 1.467695 6.340942 1.076558
v 3.090890 -1.552293 3.493281
v 1.286196 6.338001 1.171946
v 2.406769 -1.552293 3.858951
v 1.089566 6.335977 1.230104
v 1.664456 -1.552293 4.084129
v 0.885361 6.334942 1.248794
v 0.681431 6.334940 1.227300
v 0.120494 -1.552293 4.084128
v 0.485610 6.335969 1.166448
v -0.621821 -1.552293 3.858949
v 0.305426 6.337990 1.068575
v -1.305940 -1.552293 3.493279
v 0.147801 6.340928 0.937443
v -1.905576 -1.552293 3.001171
v 0.018795 6.344666 0.778091
v -2.397685 -1.552293 2.401532
v -0.076637 6.349062 0.596644
v -2.763355 -1.552293 1.717413
v -0.134827 6.353946 0.400074
v -2.988532 -1.552293 0.975098
v -0.153538 6.359132 0.195934
v -3.064565 -1.552293 0.203117
v -0.132051 6.364422 -0.007929
v -2.988530 -1.552293 -0.568864
v -0.071192 6.369609 -0.203680
v -2.763352 -1.552293 -1.311177
v 0.026701 6.374496 -0.383799
v -2.397681 -1.552292 -1.995297
v 0.157864 6.378894 -0.541364
v -1.905572 -1.552292 -2.594932
v 0.317259 6.382636 -0.670318
v -1.305933 -1.552292 -3.087041
v 0.498758 6.385576 -0.765706
v -0.621813 -1.552292 -3.452710
v -1.263632 0.866432 -1.000994
v -1.103374 0.873886 -1.128711
v 0.695388 6.387603 -0.823862
v 0.892475 -1.552292 -3.753919
v 0.120501 -1.552292 -3.677886
v -0.947393 0.780521 0.707366
v 0.437674 0.857374 -0.638568
v -0.120719 0.883659 -1.211695
v 0.494538 0.847592 -0.441792
v -0.343887 0.780427 0.775148
v -1.579985 0.826962 -0.266602
v 0.058801 0.879583 -1.112671
v 0.327741 0.806520 0.340169
v -1.283649 0.790496 0.476248
v -0.921238 0.879735 -1.222743
v 0.511875 0.837215 -0.237729
v -0.548209 0.778395 0.792404
v -1.557127 0.837536 -0.470108
v -1.494952 0.847901 -0.665242
v 0.215537 0.873682 -0.980579
v 0.195521 0.797746 0.496664
v -1.411578 0.797996 0.316163
v -0.724223 0.883753 -1.279477
v 0.489017 0.826642 -0.034222
v -0.751988 0.778427 0.769515
v -1.395851 0.857658 -0.844499
v 0.343467 0.866184 -0.820493
v 0.035264 0.790292 0.624382
v -1.505786 0.806805 0.134237
v -0.519901 0.885784 -1.296732
v -0.316124 0.885753 -1.273846
v -0.146871 0.784445 0.718415
v -1.562650 0.816585 -0.062538
v 0.426841 0.816277 0.160911
v -1.126911 0.784595 0.608342
v 0.892475 -1.552293 4.160162
vt 0.000000 0.000000
vt 0.263208 0.943004
vt 0.354186 0.019311
vt 0.736793 0.056995
vt 0.818669 0.111703
vt 0.980689 0.354184
vt 0.888298 0.181333
vt 0.943005 0.263208
vt 0.999900 0.450764
vt 0.999900 0.549236
vt 0.980689 0.645815
vt 0.943006 0.736791
vt 0.888298 0.818667
vt 0.818668 0.888297
vt 0.736793 0.943005
vt 0.645817 0.980689
vt 0.549238 0.999899
vt 0.450766 0.999900
vt 0.354186 0.980689
vt 0.181332 0.888296
vt 0.019311 0.645814
vt 0.111702 0.818666
vt 0.056994 0.736790
vt 0.000100 0.549234
vt 0.000100 0.450763
vt 0.019311 0.354184
vt 0.056994 0.263209
vt 0.111702 0.181333
vt 0.181333 0.111702
vt 0.263210 0.056994
vt 0.450765 0.000100
vt 0.549237 0.000100
vt 0.645817 0.019311
vn 0.098500 0.343000 -0.934200
vn 0.280500 0.342400 -0.896700
vn 0.451400 0.342400 -0.824000
vn 0.604600 0.342400 -0.719100
vn 0.734100 0.342500 -0.586300
vn 0.834900 0.342600 -0.430800
vn 0.903100 0.342700 -0.258800
vn 0.936200 0.342900 -0.077100
vn 0.933200 0.343000 0.107300
vn 0.894300 0.343200 0.287100
vn 0.821200 0.343500 0.455600
vn 0.717000 0.343700 0.606500
vn 0.585700 0.343900 0.733900
vn 0.432400 0.344100 0.833400
vn 0.263000 0.344300 0.901300
vn 0.083800 0.344400 0.935100
vn -0.098400 0.345100 0.933400
vn -0.276900 0.345000 0.896800
vn -0.445000 0.344900 0.826400
vn -0.595800 0.344600 0.725500
vn -0.596500 0.344700 0.724800
vn -0.596200 0.344700 0.725100
vn -0.725700 0.344500 0.595600
vn -0.827800 0.344300 0.442900
vn -0.827500 0.344300 0.443600
vn -0.827700 0.344300 0.443200
vn -0.898000 0.344100 0.274400
vn -0.934300 0.343900 0.094400
vn -0.934800 0.343600 -0.089600
vn -0.899400 0.343500 -0.270500
vn -0.829100 0.343300 -0.441300
vn -0.726200 0.343200 -0.595700
vn -0.726600 0.343200 -0.595300
vn -0.726400 0.343200 -0.595500
vn -0.595700 0.343100 -0.726300
vn -0.595500 0.343100 -0.726400
vn -0.441300 0.343000 -0.829200
vn 0.614000 -0.221500 0.757600
vn -0.087300 0.343000 -0.935300
vn -0.269700 0.343000 -0.899800
vn 0.000000 -1.000000 0.000000
vn -0.005600 0.998700 0.051300
vn -0.934400 0.218300 0.281400
vn -0.934600 0.218400 0.280900
vn -0.934400 0.218300 0.281600
vn -0.091200 0.104600 -0.990300
vn 0.962000 -0.256000 0.094800
vn -0.481400 0.052400 0.874900
vn -0.748800 0.243300 -0.616500
vn 0.767200 -0.146000 -0.624500
vn 0.455200 -0.189800 0.869900
vn -0.965800 0.241600 0.094300
vn 0.104700 0.054600 -0.993000
vn 0.923600 -0.261600 0.280200
vn 0.923600 -0.261600 0.280400
vn -0.638800 0.102500 0.762500
vn -0.616600 0.220600 -0.755700
vn 0.867800 -0.185400 -0.460900
vn 0.276400 -0.150100 0.949200
vn -0.962000 0.256000 -0.094700
vn -0.962000 0.256000 -0.094800
vn 0.296800 0.002100 -0.954900
vn 0.851500 -0.257700 0.456600
vn 0.851500 -0.257700 0.456700
vn 0.851800 -0.257700 0.456100
vn -0.769200 0.147800 0.621600
vn -0.459200 0.189200 -0.867900
vn 0.934600 -0.217500 -0.281300
vn 0.934400 -0.217400 -0.282000
vn 0.934600 -0.217500 -0.281600
vn -0.111500 -0.053200 0.992300
vn 0.084700 -0.103900 0.991000
vn -0.923700 0.261100 -0.280300
vn -0.923700 0.261100 -0.280400
vn 0.476300 -0.050300 -0.877900
vn 0.747400 -0.244300 0.617800
vn -0.868600 0.186800 0.458900
vn -0.281800 0.150100 -0.947600
vn 0.965900 -0.241100 -0.094700
vn 0.965900 -0.241200 -0.094300
vn -0.303100 -0.000200 0.953000
vn -0.851700 0.256900 -0.456700
vn -0.852000 0.256900 -0.456100
vn -0.851800 0.256900 -0.456500
vn 0.635200 -0.100400 -0.765800
vn 0.092100 0.342700 -0.934900
vn 0.272700 0.342900 -0.898900
vn 0.442800 0.342900 -0.828400
vn 0.595900 0.343000 -0.726100
vn 0.726100 0.343200 -0.595900
vn 0.828300 0.343300 -0.442700
vn 0.898700 0.343500 -0.272600
vn 0.934500 0.343700 -0.092000
vn 0.934500 0.343900 0.092000
vn 0.898500 0.344100 0.272600
vn 0.828000 0.344300 0.442600
vn 0.725700 0.344500 0.595600
vn 0.595500 0.344600 0.725700
vn 0.442500 0.344800 0.827900
vn 0.272500 0.344800 0.898200
vn 0.092000 0.344900 0.934100
vn -0.092000 0.344700 0.934200
vn -0.272500 0.344700 0.898300
vn -0.442500 0.344700 0.827900
vn -0.595500 0.344600 0.725700
vn -0.828000 0.344300 0.442600
vn -0.898500 0.344200 0.272500
vn -0.934500 0.344000 0.092000
vn -0.934500 0.343800 -0.092000
vn -0.898700 0.343600 -0.272600
vn -0.828300 0.343400 -0.442700
vn -0.726100 0.343200 -0.595900
vn -0.595900 0.343000 -0.726100
vn -0.442800 0.342900 -0.828500
vn 0.616400 -0.221800 0.755500
vn -0.092100 0.342700 -0.934900
vn -0.272700 0.342800 -0.899000
vn -0.005600 0.998700 0.051200
vn -0.934300 0.218300 0.282000
vn -0.084700 0.103300 -0.991000
vn -0.476200 0.051100 0.877800
vn -0.747600 0.243200 -0.618000
vn 0.769400 -0.146600 -0.621700
vn 0.459100 -0.190400 0.867700
vn -0.965700 0.241600 0.094700
vn 0.111500 0.053000 -0.992400
vn -0.635100 0.101400 0.765700
vn -0.614200 0.220200 -0.757800
vn 0.868800 -0.185800 -0.458900
vn 0.281800 -0.151100 0.947500
vn 0.303100 0.000600 -0.953000
vn 0.851900 -0.257700 0.456000
vn -0.767100 0.147100 0.624500
vn -0.455300 0.188500 -0.870100
vn 0.934700 -0.217600 -0.280900
vn -0.104700 -0.054700 0.993000
vn 0.091200 -0.105200 0.990300
vn 0.481500 -0.051700 -0.874900
vn 0.748600 -0.244400 0.616300
vn -0.867700 0.186500 0.460900
vn -0.276400 0.149100 -0.949400
vn -0.296800 -0.001800 0.954900
vn -0.851600 0.256900 -0.456800
vn 0.638900 -0.101400 -0.762600
s 1
f 1/1/1 2/1/1 3/1/1
f 3/1/2 2/1/2 4/1/2
f 5/1/3 4/1/3 6/1/3
f 7/1/4 6/1/4 8/1/4
f 9/1/5 8/1/5 10/1/5
f 11/1/6 10/1/6 12/1/6
f 13/1/7 12/1/7 14/1/7
f 15/1/8 14/1/8 16/1/8
f 17/1/9 16/1/9 18/1/9
f 19/1/10 18/1/10 20/1/10
f 21/1/11 20/1/11 22/1/11
f 23/1/12 22/1/12 24/1/12
f 25/1/13 24/1/13 26/1/13
f 27/1/14 26/1/14 28/1/14
f 29/1/15 28/1/15 30/1/15
f 31/1/16 30/1/16 32/1/16
f 32/1/17 33/1/17 34/1/17
f 33/1/18 35/1/18 36/1/18
f 35/1/19 37/1/19 38/1/19
f 37/1/20 39/1/21 40/1/22
f 39/1/23 41/1/23 42/1/23
f 41/1/24 43/1/25 44/1/26
f 43/1/27 45/1/27 46/1/27
f 45/1/28 47/1/28 48/1/28
f 47/1/29 49/1/29 50/1/29
f 49/1/30 51/1/30 52/1/30
f 51/1/31 53/1/31 54/1/31
f 53/1/32 55/1/33 56/1/34
f 55/1/35 57/1/35 58/1/36
f 57/1/37 59/1/37 60/1/37
f 55/1/38 61/1/38 62/1/38
f 63/1/39 1/1/39 64/1/39
f 59/1/40 63/1/40 65/1/40
f 38/1/41 46/1/41 65/1/41
f 66/2/42 67/3/42 68/4/42
f 12/1/43 67/1/44 69/1/45
f 32/1/46 30/1/46 70/1/46
f 49/1/47 47/1/47 71/1/47
f 4/1/48 68/1/48 72/1/48
f 24/1/49 22/1/49 73/1/49
f 41/1/50 39/1/50 74/1/50
f 57/1/51 62/1/51 75/1/51
f 14/1/52 69/1/52 76/1/52
f 33/1/53 32/1/53 77/1/53
f 49/1/54 78/1/55 79/1/55
f 6/1/56 72/1/56 80/1/56
f 26/1/57 24/1/57 81/1/57
f 43/1/58 41/1/58 82/1/58
f 59/1/59 75/1/59 83/1/59
f 16/1/60 76/1/61 84/1/61
f 35/1/62 33/1/62 85/1/62
f 51/1/63 79/1/64 86/1/65
f 8/1/66 80/1/66 87/1/66
f 28/1/67 26/1/67 88/1/67
f 45/1/68 43/1/69 89/1/70
f 1/1/71 90/1/71 91/1/71
f 63/1/72 83/1/72 90/1/72
f 20/1/73 18/1/73 84/1/74
f 37/1/75 35/1/75 66/1/75
f 53/1/76 86/1/76 61/1/76
f 10/1/77 87/1/77 67/1/77
f 30/1/78 28/1/78 92/1/78
f 47/1/79 45/1/79 93/1/80
f 2/1/81 91/1/81 68/1/81
f 22/1/82 20/1/83 94/1/84
f 39/1/85 37/1/85 95/1/85
f 64/1/86 1/1/86 3/1/86
f 5/1/87 3/1/87 4/1/87
f 7/1/88 5/1/88 6/1/88
f 9/1/89 7/1/89 8/1/89
f 11/1/90 9/1/90 10/1/90
f 13/1/91 11/1/91 12/1/91
f 15/1/92 13/1/92 14/1/92
f 17/1/93 15/1/93 16/1/93
f 19/1/94 17/1/94 18/1/94
f 21/1/95 19/1/95 20/1/95
f 23/1/96 21/1/96 22/1/96
f 25/1/97 23/1/97 24/1/97
f 27/1/98 25/1/98 26/1/98
f 29/1/99 27/1/99 28/1/99
f 31/1/100 29/1/100 30/1/100
f 96/1/101 31/1/101 32/1/101
f 96/1/102 32/1/102 34/1/102
f 34/1/103 33/1/103 36/1/103
f 36/1/104 35/1/104 38/1/104
f 38/1/105 37/1/20 40/1/22
f 40/1/23 39/1/23 42/1/23
f 42/1/106 41/1/24 44/1/26
f 44/1/107 43/1/107 46/1/107
f 46/1/108 45/1/108 48/1/108
f 48/1/109 47/1/109 50/1/109
f 50/1/110 49/1/110 52/1/110
f 52/1/111 51/1/111 54/1/111
f 54/1/112 53/1/32 56/1/34
f 56/1/113 55/1/35 58/1/36
f 58/1/114 57/1/114 60/1/114
f 57/1/115 55/1/115 62/1/115
f 65/1/116 63/1/116 64/1/116
f 60/1/117 59/1/117 65/1/117
f 65/1/41 64/1/41 3/1/41
f 3/1/41 5/1/41 7/1/41
f 7/1/41 9/1/41 11/1/41
f 11/1/41 13/1/41 15/1/41
f 15/1/41 17/1/41 19/1/41
f 19/1/41 21/1/41 15/1/41
f 23/1/41 25/1/41 27/1/41
f 27/1/41 29/1/41 31/1/41
f 31/1/41 96/1/41 34/1/41
f 34/1/41 36/1/41 31/1/41
f 38/1/41 40/1/41 42/1/41
f 42/1/41 44/1/41 46/1/41
f 46/1/41 48/1/41 50/1/41
f 50/1/41 52/1/41 46/1/41
f 54/1/41 56/1/41 65/1/41
f 58/1/41 60/1/41 65/1/41
f 65/1/41 3/1/41 7/1/41
f 7/1/41 11/1/41 65/1/41
f 15/1/41 21/1/41 23/1/41
f 23/1/41 27/1/41 31/1/41
f 31/1/41 36/1/41 38/1/41
f 38/1/41 42/1/41 46/1/41
f 46/1/41 52/1/41 54/1/41
f 56/1/41 58/1/41 65/1/41
f 65/1/41 11/1/41 15/1/41
f 15/1/41 23/1/41 31/1/41
f 31/1/41 38/1/41 65/1/41
f 46/1/41 54/1/41 65/1/41
f 65/1/41 15/1/41 31/1/41
f 68/4/42 91/5/42 75/6/42
f 90/7/42 83/8/42 75/6/42
f 75/6/42 62/9/118 61/10/42
f 61/10/42 86/11/42 79/12/42
f 79/12/42 78/13/42 71/14/42
f 71/14/42 93/15/42 79/12/42
f 89/16/42 82/17/118 74/18/42
f 74/18/42 95/19/42 89/16/42
f 66/2/42 85/20/42 92/21/42
f 77/22/42 70/23/42 92/21/42
f 92/21/42 88/24/42 81/25/42
f 81/25/42 73/26/42 94/27/42
f 94/27/42 84/28/42 76/29/42
f 76/29/42 69/30/42 67/3/42
f 67/3/42 87/31/42 80/32/42
f 80/32/42 72/33/42 67/3/42
f 91/5/42 90/7/42 75/6/42
f 75/6/42 61/10/42 68/4/42
f 79/12/42 93/15/42 89/16/42
f 89/16/42 95/19/42 66/2/42
f 85/20/42 77/22/42 92/21/42
f 92/21/42 81/25/42 66/2/42
f 94/27/42 76/29/42 67/3/42
f 67/3/42 72/33/42 68/4/42
f 68/4/42 61/10/42 79/12/42
f 79/12/42 89/16/42 66/2/42
f 66/2/42 81/25/42 94/27/42
f 94/27/42 67/3/42 66/2/42
f 68/4/42 79/12/42 66/2/42
f 14/1/119 12/1/43 69/1/45
f 77/1/120 32/1/120 70/1/120
f 78/1/47 49/1/47 71/1/47
f 6/1/121 4/1/121 72/1/121
f 81/1/122 24/1/122 73/1/122
f 82/1/123 41/1/123 74/1/123
f 59/1/124 57/1/124 75/1/124
f 16/1/125 14/1/52 76/1/52
f 85/1/126 33/1/126 77/1/126
f 51/1/54 49/1/54 79/1/55
f 8/1/127 6/1/127 80/1/127
f 88/1/128 26/1/128 81/1/128
f 89/1/129 43/1/129 82/1/129
f 63/1/130 59/1/130 83/1/130
f 18/1/60 16/1/60 84/1/61
f 66/1/131 35/1/131 85/1/131
f 53/1/132 51/1/63 86/1/65
f 10/1/133 8/1/133 87/1/133
f 92/1/134 28/1/134 88/1/134
f 93/1/135 45/1/68 89/1/70
f 2/1/136 1/1/136 91/1/136
f 1/1/137 63/1/137 90/1/137
f 94/1/74 20/1/73 84/1/74
f 95/1/138 37/1/138 66/1/138
f 55/1/139 53/1/139 61/1/139
f 12/1/140 10/1/140 67/1/140
f 70/1/141 30/1/141 92/1/141
f 71/1/80 47/1/79 93/1/80
f 4/1/142 2/1/142 68/1/142
f 73/1/143 22/1/82 94/1/84
f 74/1/144 39/1/144 95/1/144
